<?xml version="1.0" encoding="utf-8"?>
<svg xmlns="http://www.w3.org/2000/svg" xmlns:xlink="http://www.w3.org/1999/xlink" width="600" height="400" viewBox="0 0 2400 1600">
<defs>
  <clipPath id="clip2700">
    <rect x="0" y="0" width="2400" height="1600"/>
  </clipPath>
</defs>
<path clip-path="url(#clip2700)" d="
M0 1600 L2400 1600 L2400 0 L0 0  Z
  " fill="#ffffff" fill-rule="evenodd" fill-opacity="1"/>
<defs>
  <clipPath id="clip2701">
    <rect x="480" y="0" width="1681" height="1600"/>
  </clipPath>
</defs>
<path clip-path="url(#clip2700)" d="
M47.2441 1552.76 L2352.76 1552.76 L2352.76 47.2441 L47.2441 47.2441  Z
  " fill="#ffffff" fill-rule="evenodd" fill-opacity="1"/>
<defs>
  <clipPath id="clip2702">
    <rect x="47" y="47" width="2307" height="1507"/>
  </clipPath>
</defs>
<path clip-path="url(#clip2700)" d="
M1200 915.276 L1837.48 915.276 L1837.38 904.15 L1837.09 893.028 L1836.61 881.912 L1835.93 870.807 L1835.05 859.716 L1833.99 848.641 L1832.73 837.586 L1831.28 826.555 
  L1829.63 815.552 L1827.8 804.578 L1825.77 793.639 L1823.55 782.736 L1821.14 771.874 L1818.54 761.055 L1815.76 750.284 L1812.79 739.562 L1809.63 728.894 L1806.28 718.283 
  L1802.75 707.732 L1799.04 697.244 L1795.14 686.823 L1791.06 676.471 L1786.8 666.192 L1782.37 655.989 L1777.75 645.865 L1772.96 635.823 L1768 625.866 L1762.86 615.997 
  L1757.55 606.219 L1752.07 596.535 L1746.43 586.949 L1740.61 577.462 L1734.64 568.079 L1728.5 558.801 L1722.19 549.632 L1715.73 540.574 L1709.11 531.63 L1702.34 522.804 
  L1695.42 514.096 L1688.34 505.511 L1681.11 497.051 L1673.74 488.718 L1666.22 480.515 L1658.56 472.445 L1650.77 464.509 L1642.83 456.711 L1634.76 449.052  Z
  " fill="#ffb200" fill-rule="evenodd" fill-opacity="1"/>
<path clip-path="url(#clip2700)" d="M 0 0 M1987.07 618.381 L1994.04 618.381 L2002.86 641.9 L2011.72 618.381 L2018.69 618.381 L2018.69 652.941 L2014.13 652.941 L2014.13 622.594 L2005.22 646.298 L2000.52 646.298 L1991.61 622.594 L1991.61 652.941 L1987.07 652.941 L1987.07 618.381 Z" fill="#000000" fill-rule="evenodd" fill-opacity="1" /><path clip-path="url(#clip2700)" d="M 0 0 M2033.2 630.002 Q2029.78 630.002 2027.79 632.687 Q2025.8 635.349 2025.8 640.002 Q2025.8 644.654 2027.76 647.34 Q2029.75 650.002 2033.2 650.002 Q2036.61 650.002 2038.6 647.316 Q2040.59 644.631 2040.59 640.002 Q2040.59 635.395 2038.6 632.71 Q2036.61 630.002 2033.2 630.002 M2033.2 626.391 Q2038.76 626.391 2041.93 630.002 Q2045.1 633.613 2045.1 640.002 Q2045.1 646.367 2041.93 650.002 Q2038.76 653.613 2033.2 653.613 Q2027.62 653.613 2024.45 650.002 Q2021.3 646.367 2021.3 640.002 Q2021.3 633.613 2024.45 630.002 Q2027.62 626.391 2033.2 626.391 Z" fill="#000000" fill-rule="evenodd" fill-opacity="1" /><path clip-path="url(#clip2700)" d="M 0 0 M2071.12 637.293 L2071.12 652.941 L2066.86 652.941 L2066.86 637.432 Q2066.86 633.752 2065.42 631.923 Q2063.99 630.094 2061.12 630.094 Q2057.67 630.094 2055.68 632.293 Q2053.69 634.492 2053.69 638.289 L2053.69 652.941 L2049.41 652.941 L2049.41 627.016 L2053.69 627.016 L2053.69 631.043 Q2055.22 628.705 2057.28 627.548 Q2059.36 626.391 2062.07 626.391 Q2066.54 626.391 2068.83 629.168 Q2071.12 631.923 2071.12 637.293 Z" fill="#000000" fill-rule="evenodd" fill-opacity="1" /><path clip-path="url(#clip2700)" d="M 0 0 M2092.65 630.951 L2092.65 616.923 L2096.91 616.923 L2096.91 652.941 L2092.65 652.941 L2092.65 649.053 Q2091.3 651.367 2089.24 652.502 Q2087.21 653.613 2084.34 653.613 Q2079.64 653.613 2076.67 649.863 Q2073.73 646.113 2073.73 640.002 Q2073.73 633.891 2076.67 630.141 Q2079.64 626.391 2084.34 626.391 Q2087.21 626.391 2089.24 627.525 Q2091.3 628.636 2092.65 630.951 M2078.13 640.002 Q2078.13 644.701 2080.05 647.386 Q2082 650.048 2085.38 650.048 Q2088.76 650.048 2090.7 647.386 Q2092.65 644.701 2092.65 640.002 Q2092.65 635.303 2090.7 632.641 Q2088.76 629.955 2085.38 629.955 Q2082 629.955 2080.05 632.641 Q2078.13 635.303 2078.13 640.002 Z" fill="#000000" fill-rule="evenodd" fill-opacity="1" /><path clip-path="url(#clip2700)" d="M 0 0 M2113.16 639.909 Q2107.99 639.909 2106 641.09 Q2104.01 642.27 2104.01 645.117 Q2104.01 647.386 2105.49 648.728 Q2107 650.048 2109.57 650.048 Q2113.11 650.048 2115.24 647.548 Q2117.39 645.025 2117.39 640.858 L2117.39 639.909 L2113.16 639.909 M2121.65 638.15 L2121.65 652.941 L2117.39 652.941 L2117.39 649.006 Q2115.93 651.367 2113.76 652.502 Q2111.58 653.613 2108.43 653.613 Q2104.45 653.613 2102.09 651.391 Q2099.75 649.145 2099.75 645.395 Q2099.75 641.02 2102.67 638.798 Q2105.61 636.576 2111.42 636.576 L2117.39 636.576 L2117.39 636.159 Q2117.39 633.219 2115.45 631.622 Q2113.53 630.002 2110.03 630.002 Q2107.81 630.002 2105.7 630.534 Q2103.6 631.067 2101.65 632.131 L2101.65 628.196 Q2103.99 627.293 2106.19 626.854 Q2108.39 626.391 2110.47 626.391 Q2116.1 626.391 2118.87 629.307 Q2121.65 632.224 2121.65 638.15 Z" fill="#000000" fill-rule="evenodd" fill-opacity="1" /><path clip-path="url(#clip2700)" d="M 0 0 M2136.91 655.349 Q2135.1 659.978 2133.39 661.39 Q2131.67 662.802 2128.8 662.802 L2125.4 662.802 L2125.4 659.238 L2127.9 659.238 Q2129.66 659.238 2130.63 658.404 Q2131.6 657.571 2132.79 654.469 L2133.55 652.525 L2123.06 627.016 L2127.58 627.016 L2135.68 647.293 L2143.78 627.016 L2148.29 627.016 L2136.91 655.349 Z" fill="#000000" fill-rule="evenodd" fill-opacity="1" /><polyline clip-path="url(#clip2700)" style="stroke:#000000; stroke-width:3.2; stroke-opacity:1; fill:none" points="
  1784.61,661.081 1843.07,635.661 1963.07,635.661 
  "/>
<path clip-path="url(#clip2700)" d="
M1200 915.276 L1634.76 449.052 L1626.56 441.535 L1618.22 434.163 L1609.76 426.937 L1601.18 419.86 L1592.47 412.934 L1583.65 406.161 L1574.7 399.543 L1565.64 393.082 
  L1556.47 386.78 L1547.2 380.64 L1537.81 374.662 L1528.33 368.848 L1518.74 363.201 L1509.06 357.723 L1499.28 352.414 L1489.41 347.276 L1479.45 342.312 L1469.41 337.522 
  L1459.29 332.908 L1449.08 328.472 L1438.8 324.214 L1428.45 320.136 L1418.03 316.24 L1407.54 312.526 L1396.99 308.996 L1386.38 305.65 L1375.71 302.49 L1364.99 299.517 
  L1354.22 296.731 L1343.4 294.134 L1332.54 291.726 L1321.64 289.508 L1310.7 287.48 L1299.72 285.644 L1288.72 283.999 L1277.69 282.547 L1266.63 281.287 L1255.56 280.221 
  L1244.47 279.348 L1233.36 278.669 L1222.25 278.184 L1211.13 277.892 L1200 277.795 L1188.87 277.892 L1177.75 278.184 L1166.64 278.669 L1155.53 279.348  Z
  " fill="#7f3e74" fill-rule="evenodd" fill-opacity="1"/>
<path clip-path="url(#clip2700)" d="M 0 0 M1578.07 236.989 L1607.31 236.989 L1607.31 240.924 L1595.04 240.924 L1595.04 271.549 L1590.34 271.549 L1590.34 240.924 L1578.07 240.924 L1578.07 236.989 Z" fill="#000000" fill-rule="evenodd" fill-opacity="1" /><path clip-path="url(#clip2700)" d="M 0 0 M1604.14 261.317 L1604.14 245.623 L1608.4 245.623 L1608.4 261.155 Q1608.4 264.836 1609.83 266.688 Q1611.27 268.516 1614.14 268.516 Q1617.59 268.516 1619.58 266.317 Q1621.59 264.118 1621.59 260.322 L1621.59 245.623 L1625.85 245.623 L1625.85 271.549 L1621.59 271.549 L1621.59 267.567 Q1620.04 269.928 1617.98 271.086 Q1615.94 272.22 1613.24 272.22 Q1608.77 272.22 1606.45 269.442 Q1604.14 266.664 1604.14 261.317 M1614.86 244.998 L1614.86 244.998 Z" fill="#000000" fill-rule="evenodd" fill-opacity="1" /><path clip-path="url(#clip2700)" d="M 0 0 M1652.5 257.521 L1652.5 259.604 L1632.91 259.604 Q1633.19 264.002 1635.55 266.317 Q1637.94 268.609 1642.17 268.609 Q1644.63 268.609 1646.92 268.007 Q1649.23 267.405 1651.5 266.201 L1651.5 270.229 Q1649.21 271.201 1646.8 271.711 Q1644.39 272.22 1641.92 272.22 Q1635.71 272.22 1632.08 268.609 Q1628.47 264.998 1628.47 258.84 Q1628.47 252.475 1631.89 248.748 Q1635.34 244.998 1641.18 244.998 Q1646.41 244.998 1649.44 248.377 Q1652.5 251.734 1652.5 257.521 M1648.24 256.271 Q1648.19 252.776 1646.27 250.692 Q1644.37 248.609 1641.22 248.609 Q1637.66 248.609 1635.51 250.623 Q1633.38 252.637 1633.05 256.294 L1648.24 256.271 Z" fill="#000000" fill-rule="evenodd" fill-opacity="1" /><path clip-path="url(#clip2700)" d="M 0 0 M1673.49 246.387 L1673.49 250.415 Q1671.69 249.489 1669.74 249.026 Q1667.8 248.563 1665.71 248.563 Q1662.54 248.563 1660.94 249.535 Q1659.37 250.507 1659.37 252.452 Q1659.37 253.933 1660.5 254.789 Q1661.64 255.623 1665.07 256.387 L1666.52 256.711 Q1671.06 257.683 1672.96 259.465 Q1674.88 261.225 1674.88 264.396 Q1674.88 268.007 1672.01 270.113 Q1669.16 272.22 1664.16 272.22 Q1662.08 272.22 1659.81 271.803 Q1657.57 271.41 1655.07 270.6 L1655.07 266.201 Q1657.43 267.428 1659.72 268.053 Q1662.01 268.655 1664.25 268.655 Q1667.26 268.655 1668.88 267.637 Q1670.5 266.595 1670.5 264.72 Q1670.5 262.984 1669.32 262.058 Q1668.17 261.132 1664.21 260.276 L1662.73 259.928 Q1658.77 259.095 1657.01 257.382 Q1655.25 255.646 1655.25 252.637 Q1655.25 248.979 1657.84 246.989 Q1660.44 244.998 1665.2 244.998 Q1667.57 244.998 1669.65 245.345 Q1671.73 245.692 1673.49 246.387 Z" fill="#000000" fill-rule="evenodd" fill-opacity="1" /><path clip-path="url(#clip2700)" d="M 0 0 M1696.41 249.558 L1696.41 235.53 L1700.67 235.53 L1700.67 271.549 L1696.41 271.549 L1696.41 267.66 Q1695.06 269.975 1693 271.109 Q1690.97 272.22 1688.1 272.22 Q1683.4 272.22 1680.44 268.47 Q1677.5 264.72 1677.5 258.609 Q1677.5 252.498 1680.44 248.748 Q1683.4 244.998 1688.1 244.998 Q1690.97 244.998 1693 246.132 Q1695.06 247.243 1696.41 249.558 M1681.89 258.609 Q1681.89 263.308 1683.82 265.993 Q1685.76 268.655 1689.14 268.655 Q1692.52 268.655 1694.46 265.993 Q1696.41 263.308 1696.41 258.609 Q1696.41 253.91 1694.46 251.248 Q1692.52 248.563 1689.14 248.563 Q1685.76 248.563 1683.82 251.248 Q1681.89 253.91 1681.89 258.609 Z" fill="#000000" fill-rule="evenodd" fill-opacity="1" /><path clip-path="url(#clip2700)" d="M 0 0 M1716.92 258.516 Q1711.75 258.516 1709.76 259.697 Q1707.77 260.877 1707.77 263.725 Q1707.77 265.993 1709.25 267.336 Q1710.76 268.655 1713.33 268.655 Q1716.87 268.655 1719 266.155 Q1721.15 263.632 1721.15 259.465 L1721.15 258.516 L1716.92 258.516 M1725.41 256.757 L1725.41 271.549 L1721.15 271.549 L1721.15 267.613 Q1719.69 269.975 1717.52 271.109 Q1715.34 272.22 1712.19 272.22 Q1708.21 272.22 1705.85 269.998 Q1703.51 267.752 1703.51 264.002 Q1703.51 259.627 1706.43 257.405 Q1709.37 255.183 1715.18 255.183 L1721.15 255.183 L1721.15 254.766 Q1721.15 251.827 1719.21 250.229 Q1717.29 248.609 1713.79 248.609 Q1711.57 248.609 1709.46 249.141 Q1707.36 249.674 1705.41 250.739 L1705.41 246.803 Q1707.75 245.901 1709.95 245.461 Q1712.15 244.998 1714.23 244.998 Q1719.86 244.998 1722.63 247.915 Q1725.41 250.831 1725.41 256.757 Z" fill="#000000" fill-rule="evenodd" fill-opacity="1" /><path clip-path="url(#clip2700)" d="M 0 0 M1740.67 273.956 Q1738.86 278.586 1737.15 279.998 Q1735.44 281.41 1732.56 281.41 L1729.16 281.41 L1729.16 277.845 L1731.66 277.845 Q1733.42 277.845 1734.39 277.012 Q1735.37 276.178 1736.55 273.076 L1737.31 271.132 L1726.82 245.623 L1731.34 245.623 L1739.44 265.901 L1747.54 245.623 L1752.06 245.623 L1740.67 273.956 Z" fill="#000000" fill-rule="evenodd" fill-opacity="1" /><polyline clip-path="url(#clip2700)" style="stroke:#000000; stroke-width:3.2; stroke-opacity:1; fill:none" points="
  1412.8,314.36 1434.07,254.269 1554.07,254.269 
  "/>
<path clip-path="url(#clip2700)" d="
M1200 915.276 L1155.53 279.348 L1144.44 280.221 L1133.37 281.287 L1122.31 282.547 L1111.28 283.999 L1100.28 285.644 L1089.3 287.48 L1078.36 289.508 L1067.46 291.726 
  L1056.6 294.134 L1045.78 296.731 L1035.01 299.517 L1024.29 302.49 L1013.62 305.65 L1003.01 308.996 L992.457 312.526 L981.969 316.24 L971.547 320.136 L961.196 324.214 
  L950.917 328.472 L940.713 332.908 L930.589 337.522 L920.547 342.312 L910.59 347.276 L900.721 352.414 L890.943 357.723 L881.26 363.201 L871.673 368.848 L862.187 374.662 
  L852.803 380.64 L843.526 386.78 L834.356 393.082 L825.298 399.543 L816.355 406.161 L807.528 412.934 L798.821 419.86 L790.236 426.937 L781.775 434.163 L773.442 441.535 
  L765.239 449.052 L757.169 456.711 L749.233 464.509 L741.435 472.445 L733.776 480.515 L726.26 488.718 L718.887 497.051 L711.662 505.511 L704.585 514.096 L697.659 522.804 
  L690.886 531.63 L684.268 540.574 L677.807 549.632 L671.505 558.801 L665.364 568.079 L659.386 577.462 L653.573 586.949 L647.926 596.535 L642.447 606.219 L637.138 615.997 
  L632.001 625.866 L627.036 635.823 L622.247 645.865 L617.633 655.989 L613.196 666.192 L608.939 676.471  Z
  " fill="#ff6700" fill-rule="evenodd" fill-opacity="1"/>
<path clip-path="url(#clip2700)" d="M 0 0 M398.205 330.69 L402.927 330.69 L410.195 359.903 L417.441 330.69 L422.695 330.69 L429.964 359.903 L437.209 330.69 L441.954 330.69 L433.274 365.25 L427.394 365.25 L420.103 335.25 L412.742 365.25 L406.862 365.25 L398.205 330.69 Z" fill="#000000" fill-rule="evenodd" fill-opacity="1" /><path clip-path="url(#clip2700)" d="M 0 0 M465.82 351.222 L465.82 353.306 L446.237 353.306 Q446.515 357.704 448.876 360.018 Q451.26 362.31 455.496 362.31 Q457.95 362.31 460.241 361.708 Q462.556 361.106 464.825 359.903 L464.825 363.931 Q462.533 364.903 460.126 365.412 Q457.718 365.921 455.241 365.921 Q449.038 365.921 445.403 362.31 Q441.792 358.699 441.792 352.542 Q441.792 346.176 445.218 342.449 Q448.667 338.699 454.501 338.699 Q459.732 338.699 462.764 342.079 Q465.82 345.435 465.82 351.222 M461.561 349.972 Q461.514 346.477 459.593 344.394 Q457.695 342.31 454.547 342.31 Q450.982 342.31 448.829 344.324 Q446.7 346.338 446.376 349.995 L461.561 349.972 Z" fill="#000000" fill-rule="evenodd" fill-opacity="1" /><path clip-path="url(#clip2700)" d="M 0 0 M487.348 343.259 L487.348 329.232 L491.607 329.232 L491.607 365.25 L487.348 365.25 L487.348 361.361 Q486.005 363.676 483.945 364.81 Q481.908 365.921 479.038 365.921 Q474.338 365.921 471.376 362.171 Q468.436 358.421 468.436 352.31 Q468.436 346.199 471.376 342.449 Q474.338 338.699 479.038 338.699 Q481.908 338.699 483.945 339.833 Q486.005 340.945 487.348 343.259 M472.834 352.31 Q472.834 357.009 474.755 359.694 Q476.7 362.356 480.079 362.356 Q483.459 362.356 485.403 359.694 Q487.348 357.009 487.348 352.31 Q487.348 347.611 485.403 344.949 Q483.459 342.264 480.079 342.264 Q476.7 342.264 474.755 344.949 Q472.834 347.611 472.834 352.31 Z" fill="#000000" fill-rule="evenodd" fill-opacity="1" /><path clip-path="url(#clip2700)" d="M 0 0 M517.625 349.602 L517.625 365.25 L513.366 365.25 L513.366 349.741 Q513.366 346.06 511.931 344.232 Q510.496 342.403 507.625 342.403 Q504.176 342.403 502.186 344.602 Q500.195 346.801 500.195 350.597 L500.195 365.25 L495.912 365.25 L495.912 339.324 L500.195 339.324 L500.195 343.352 Q501.723 341.014 503.783 339.857 Q505.866 338.699 508.574 338.699 Q513.042 338.699 515.334 341.477 Q517.625 344.232 517.625 349.602 Z" fill="#000000" fill-rule="evenodd" fill-opacity="1" /><path clip-path="url(#clip2700)" d="M 0 0 M544.269 351.222 L544.269 353.306 L524.685 353.306 Q524.963 357.704 527.324 360.018 Q529.709 362.31 533.945 362.31 Q536.398 362.31 538.69 361.708 Q541.005 361.106 543.273 359.903 L543.273 363.931 Q540.982 364.903 538.574 365.412 Q536.167 365.921 533.69 365.921 Q527.486 365.921 523.852 362.31 Q520.241 358.699 520.241 352.542 Q520.241 346.176 523.667 342.449 Q527.116 338.699 532.949 338.699 Q538.181 338.699 541.213 342.079 Q544.269 345.435 544.269 351.222 M540.009 349.972 Q539.963 346.477 538.042 344.394 Q536.144 342.31 532.996 342.31 Q529.431 342.31 527.278 344.324 Q525.148 346.338 524.824 349.995 L540.009 349.972 Z" fill="#000000" fill-rule="evenodd" fill-opacity="1" /><path clip-path="url(#clip2700)" d="M 0 0 M565.264 340.088 L565.264 344.116 Q563.458 343.19 561.514 342.727 Q559.57 342.264 557.486 342.264 Q554.315 342.264 552.718 343.236 Q551.144 344.208 551.144 346.153 Q551.144 347.634 552.278 348.491 Q553.412 349.324 556.838 350.088 L558.296 350.412 Q562.833 351.384 564.732 353.167 Q566.653 354.926 566.653 358.097 Q566.653 361.708 563.782 363.815 Q560.935 365.921 555.935 365.921 Q553.852 365.921 551.583 365.505 Q549.338 365.111 546.838 364.301 L546.838 359.903 Q549.199 361.13 551.491 361.755 Q553.783 362.356 556.028 362.356 Q559.037 362.356 560.657 361.338 Q562.278 360.296 562.278 358.421 Q562.278 356.685 561.097 355.759 Q559.94 354.833 555.982 353.977 L554.5 353.63 Q550.542 352.796 548.783 351.083 Q547.023 349.347 547.023 346.338 Q547.023 342.681 549.616 340.69 Q552.208 338.699 556.977 338.699 Q559.338 338.699 561.421 339.046 Q563.505 339.394 565.264 340.088 Z" fill="#000000" fill-rule="evenodd" fill-opacity="1" /><path clip-path="url(#clip2700)" d="M 0 0 M588.18 343.259 L588.18 329.232 L592.44 329.232 L592.44 365.25 L588.18 365.25 L588.18 361.361 Q586.838 363.676 584.778 364.81 Q582.741 365.921 579.87 365.921 Q575.171 365.921 572.208 362.171 Q569.269 358.421 569.269 352.31 Q569.269 346.199 572.208 342.449 Q575.171 338.699 579.87 338.699 Q582.741 338.699 584.778 339.833 Q586.838 340.945 588.18 343.259 M573.667 352.31 Q573.667 357.009 575.588 359.694 Q577.532 362.356 580.912 362.356 Q584.292 362.356 586.236 359.694 Q588.18 357.009 588.18 352.31 Q588.18 347.611 586.236 344.949 Q584.292 342.264 580.912 342.264 Q577.532 342.264 575.588 344.949 Q573.667 347.611 573.667 352.31 Z" fill="#000000" fill-rule="evenodd" fill-opacity="1" /><path clip-path="url(#clip2700)" d="M 0 0 M608.69 352.218 Q603.528 352.218 601.537 353.398 Q599.546 354.579 599.546 357.426 Q599.546 359.694 601.028 361.037 Q602.532 362.356 605.102 362.356 Q608.643 362.356 610.773 359.856 Q612.926 357.333 612.926 353.167 L612.926 352.218 L608.69 352.218 M617.185 350.458 L617.185 365.25 L612.926 365.25 L612.926 361.315 Q611.467 363.676 609.291 364.81 Q607.116 365.921 603.967 365.921 Q599.986 365.921 597.625 363.699 Q595.287 361.454 595.287 357.704 Q595.287 353.329 598.204 351.106 Q601.143 348.884 606.954 348.884 L612.926 348.884 L612.926 348.468 Q612.926 345.528 610.981 343.931 Q609.06 342.31 605.565 342.31 Q603.342 342.31 601.236 342.843 Q599.129 343.375 597.185 344.44 L597.185 340.505 Q599.523 339.602 601.722 339.162 Q603.921 338.699 606.004 338.699 Q611.629 338.699 614.407 341.616 Q617.185 344.532 617.185 350.458 Z" fill="#000000" fill-rule="evenodd" fill-opacity="1" /><path clip-path="url(#clip2700)" d="M 0 0 M632.439 367.657 Q630.634 372.287 628.921 373.699 Q627.208 375.111 624.338 375.111 L620.935 375.111 L620.935 371.546 L623.435 371.546 Q625.194 371.546 626.166 370.713 Q627.139 369.88 628.319 366.778 L629.083 364.833 L618.597 339.324 L623.111 339.324 L631.213 359.602 L639.314 339.324 L643.828 339.324 L632.439 367.657 Z" fill="#000000" fill-rule="evenodd" fill-opacity="1" /><polyline clip-path="url(#clip2700)" style="stroke:#000000; stroke-width:3.2; stroke-opacity:1; fill:none" points="
  825.298,399.543 787.828,347.97 667.828,347.97 
  "/>
<path clip-path="url(#clip2700)" d="
M1200 915.276 L608.939 676.471 L604.861 686.823 L600.964 697.244 L597.251 707.732 L593.72 718.283 L590.375 728.894 L587.215 739.562 L584.241 750.284 L581.456 761.055 
  L578.858 771.874 L576.45 782.736 L574.232 793.639 L572.204 804.578 L570.368 815.552 L568.724 826.555 L567.271 837.586 L566.012 848.641 L564.945 859.716 L564.073 870.807 
  L563.393 881.912 L562.908 893.028 L562.617 904.15 L562.52 915.276 L562.617 926.401 L562.908 937.523 L563.393 948.639 L564.073 959.744 L564.945 970.836 L566.012 981.91 
  L567.271 992.965 L568.724 1004 L570.368 1015 L572.204 1025.97 L574.232 1036.91 L576.45 1047.82 L578.858 1058.68 L581.456 1069.5 L584.241 1080.27 L587.215 1090.99 
  L590.375 1101.66 L593.72 1112.27 L597.251 1122.82 L600.964 1133.31 L604.861 1143.73 L608.939 1154.08 L613.196 1164.36 L617.633 1174.56 L622.247 1184.69 L627.036 1194.73 
  L632.001 1204.69 L637.138 1214.55 L642.447 1224.33 L647.926 1234.02 L653.573 1243.6 L659.386 1253.09 L665.364 1262.47  Z
  " fill="#59a3c0" fill-rule="evenodd" fill-opacity="1"/>
<path clip-path="url(#clip2700)" d="M 0 0 M157.955 965.205 L187.191 965.205 L187.191 969.141 L174.922 969.141 L174.922 999.765 L170.223 999.765 L170.223 969.141 L157.955 969.141 L157.955 965.205 Z" fill="#000000" fill-rule="evenodd" fill-opacity="1" /><path clip-path="url(#clip2700)" d="M 0 0 M213.209 984.117 L213.209 999.765 L208.95 999.765 L208.95 984.256 Q208.95 980.576 207.515 978.747 Q206.079 976.918 203.209 976.918 Q199.76 976.918 197.769 979.117 Q195.779 981.316 195.779 985.113 L195.779 999.765 L191.496 999.765 L191.496 963.747 L195.779 963.747 L195.779 977.867 Q197.306 975.529 199.367 974.372 Q201.45 973.215 204.158 973.215 Q208.626 973.215 210.917 975.992 Q213.209 978.747 213.209 984.117 Z" fill="#000000" fill-rule="evenodd" fill-opacity="1" /><path clip-path="url(#clip2700)" d="M 0 0 M232.7 977.821 Q231.982 977.404 231.126 977.219 Q230.292 977.011 229.274 977.011 Q225.663 977.011 223.718 979.372 Q221.797 981.71 221.797 986.108 L221.797 999.765 L217.515 999.765 L217.515 973.84 L221.797 973.84 L221.797 977.867 Q223.14 975.506 225.292 974.372 Q227.445 973.215 230.524 973.215 Q230.964 973.215 231.496 973.284 Q232.028 973.33 232.677 973.446 L232.7 977.821 Z" fill="#000000" fill-rule="evenodd" fill-opacity="1" /><path clip-path="url(#clip2700)" d="M 0 0 M236.727 989.534 L236.727 973.84 L240.987 973.84 L240.987 989.372 Q240.987 993.052 242.422 994.904 Q243.857 996.733 246.727 996.733 Q250.176 996.733 252.167 994.534 Q254.181 992.335 254.181 988.539 L254.181 973.84 L258.44 973.84 L258.44 999.765 L254.181 999.765 L254.181 995.784 Q252.63 998.145 250.57 999.302 Q248.533 1000.44 245.825 1000.44 Q241.357 1000.44 239.042 997.659 Q236.727 994.881 236.727 989.534 M247.445 973.215 L247.445 973.215 Z" fill="#000000" fill-rule="evenodd" fill-opacity="1" /><path clip-path="url(#clip2700)" d="M 0 0 M279.436 974.603 L279.436 978.631 Q277.63 977.705 275.686 977.242 Q273.741 976.779 271.658 976.779 Q268.487 976.779 266.889 977.752 Q265.315 978.724 265.315 980.668 Q265.315 982.15 266.45 983.006 Q267.584 983.84 271.01 984.603 L272.468 984.927 Q277.005 985.9 278.903 987.682 Q280.824 989.441 280.824 992.613 Q280.824 996.224 277.954 998.33 Q275.107 1000.44 270.107 1000.44 Q268.024 1000.44 265.755 1000.02 Q263.51 999.626 261.01 998.816 L261.01 994.418 Q263.371 995.645 265.663 996.27 Q267.954 996.872 270.2 996.872 Q273.209 996.872 274.829 995.853 Q276.449 994.812 276.449 992.937 Q276.449 991.201 275.269 990.275 Q274.112 989.349 270.153 988.492 L268.672 988.145 Q264.713 987.312 262.954 985.599 Q261.195 983.863 261.195 980.853 Q261.195 977.196 263.788 975.205 Q266.38 973.215 271.149 973.215 Q273.51 973.215 275.593 973.562 Q277.676 973.909 279.436 974.603 Z" fill="#000000" fill-rule="evenodd" fill-opacity="1" /><path clip-path="url(#clip2700)" d="M 0 0 M302.352 977.775 L302.352 963.747 L306.611 963.747 L306.611 999.765 L302.352 999.765 L302.352 995.876 Q301.01 998.191 298.949 999.326 Q296.912 1000.44 294.042 1000.44 Q289.343 1000.44 286.38 996.687 Q283.44 992.937 283.44 986.826 Q283.44 980.715 286.38 976.965 Q289.343 973.215 294.042 973.215 Q296.912 973.215 298.949 974.349 Q301.01 975.46 302.352 977.775 M287.838 986.826 Q287.838 991.525 289.76 994.21 Q291.704 996.872 295.084 996.872 Q298.463 996.872 300.408 994.21 Q302.352 991.525 302.352 986.826 Q302.352 982.127 300.408 979.465 Q298.463 976.779 295.084 976.779 Q291.704 976.779 289.76 979.465 Q287.838 982.127 287.838 986.826 Z" fill="#000000" fill-rule="evenodd" fill-opacity="1" /><path clip-path="url(#clip2700)" d="M 0 0 M322.861 986.733 Q317.699 986.733 315.709 987.914 Q313.718 989.094 313.718 991.941 Q313.718 994.21 315.199 995.552 Q316.704 996.872 319.273 996.872 Q322.815 996.872 324.945 994.372 Q327.097 991.849 327.097 987.682 L327.097 986.733 L322.861 986.733 M331.357 984.974 L331.357 999.765 L327.097 999.765 L327.097 995.83 Q325.639 998.191 323.463 999.326 Q321.287 1000.44 318.139 1000.44 Q314.158 1000.44 311.797 998.214 Q309.459 995.969 309.459 992.219 Q309.459 987.844 312.375 985.622 Q315.315 983.4 321.125 983.4 L327.097 983.4 L327.097 982.983 Q327.097 980.043 325.153 978.446 Q323.232 976.826 319.736 976.826 Q317.514 976.826 315.408 977.358 Q313.301 977.89 311.357 978.955 L311.357 975.02 Q313.695 974.117 315.894 973.678 Q318.093 973.215 320.176 973.215 Q325.801 973.215 328.579 976.131 Q331.357 979.048 331.357 984.974 Z" fill="#000000" fill-rule="evenodd" fill-opacity="1" /><path clip-path="url(#clip2700)" d="M 0 0 M346.611 1002.17 Q344.806 1006.8 343.093 1008.21 Q341.38 1009.63 338.509 1009.63 L335.107 1009.63 L335.107 1006.06 L337.607 1006.06 Q339.366 1006.06 340.338 1005.23 Q341.31 1004.39 342.491 1001.29 L343.255 999.349 L332.769 973.84 L337.282 973.84 L345.384 994.117 L353.486 973.84 L358 973.84 L346.611 1002.17 Z" fill="#000000" fill-rule="evenodd" fill-opacity="1" /><polyline clip-path="url(#clip2700)" style="stroke:#000000; stroke-width:3.2; stroke-opacity:1; fill:none" points="
  565.455,976.375 502,982.485 382,982.485 
  "/>
<path clip-path="url(#clip2700)" d="
M1200 915.276 L665.364 1262.47 L671.505 1271.75 L677.807 1280.92 L684.268 1289.98 L690.886 1298.92 L697.659 1307.75 L704.585 1316.45 L711.662 1325.04 L718.887 1333.5 
  L726.26 1341.83 L733.776 1350.04 L741.435 1358.11 L749.233 1366.04 L757.169 1373.84 L765.239 1381.5 L773.442 1389.02 L781.775 1396.39 L790.236 1403.61 L798.821 1410.69 
  L807.528 1417.62 L816.355 1424.39 L825.298 1431.01 L834.356 1437.47 L843.526 1443.77 L852.803 1449.91 L862.187 1455.89 L871.673 1461.7 L881.26 1467.35 L890.943 1472.83 
  L900.721 1478.14 L910.59 1483.27 L920.547 1488.24 L930.589 1493.03 L940.713 1497.64 L950.917 1502.08 L961.196 1506.34 L971.547 1510.41 L981.969 1514.31 L992.457 1518.03 
  L1003.01 1521.56 L1013.62 1524.9 L1024.29 1528.06 L1035.01 1531.03 L1045.78 1533.82 L1056.6 1536.42 L1067.46 1538.83 L1078.36 1541.04 L1089.3 1543.07 L1100.28 1544.91 
  L1111.28 1546.55 L1122.31 1548 L1133.37 1549.26  Z
  " fill="#c0001f" fill-rule="evenodd" fill-opacity="1"/>
<path clip-path="url(#clip2700)" d="M 0 0 M567.804 1495.89 L587.665 1495.89 L587.665 1499.83 L572.48 1499.83 L572.48 1510.01 L586.184 1510.01 L586.184 1513.95 L572.48 1513.95 L572.48 1530.45 L567.804 1530.45 L567.804 1495.89 Z" fill="#000000" fill-rule="evenodd" fill-opacity="1" /><path clip-path="url(#clip2700)" d="M 0 0 M603.707 1508.51 Q602.989 1508.09 602.133 1507.9 Q601.299 1507.7 600.281 1507.7 Q596.67 1507.7 594.725 1510.06 Q592.804 1512.4 592.804 1516.79 L592.804 1530.45 L588.522 1530.45 L588.522 1504.53 L592.804 1504.53 L592.804 1508.55 Q594.147 1506.19 596.3 1505.06 Q598.452 1503.9 601.531 1503.9 Q601.971 1503.9 602.503 1503.97 Q603.036 1504.02 603.684 1504.13 L603.707 1508.51 Z" fill="#000000" fill-rule="evenodd" fill-opacity="1" /><path clip-path="url(#clip2700)" d="M 0 0 M608.174 1504.53 L612.434 1504.53 L612.434 1530.45 L608.174 1530.45 L608.174 1504.53 M608.174 1494.43 L612.434 1494.43 L612.434 1499.83 L608.174 1499.83 L608.174 1494.43 Z" fill="#000000" fill-rule="evenodd" fill-opacity="1" /><path clip-path="url(#clip2700)" d="M 0 0 M633.961 1508.46 L633.961 1494.43 L638.221 1494.43 L638.221 1530.45 L633.961 1530.45 L633.961 1526.56 Q632.619 1528.88 630.559 1530.01 Q628.522 1531.12 625.651 1531.12 Q620.952 1531.12 617.989 1527.37 Q615.049 1523.62 615.049 1517.51 Q615.049 1511.4 617.989 1507.65 Q620.952 1503.9 625.651 1503.9 Q628.522 1503.9 630.559 1505.03 Q632.619 1506.15 633.961 1508.46 M619.448 1517.51 Q619.448 1522.21 621.369 1524.9 Q623.313 1527.56 626.693 1527.56 Q630.072 1527.56 632.017 1524.9 Q633.961 1522.21 633.961 1517.51 Q633.961 1512.81 632.017 1510.15 Q630.072 1507.47 626.693 1507.47 Q623.313 1507.47 621.369 1510.15 Q619.448 1512.81 619.448 1517.51 Z" fill="#000000" fill-rule="evenodd" fill-opacity="1" /><path clip-path="url(#clip2700)" d="M 0 0 M654.47 1517.42 Q649.308 1517.42 647.318 1518.6 Q645.327 1519.78 645.327 1522.63 Q645.327 1524.9 646.808 1526.24 Q648.313 1527.56 650.883 1527.56 Q654.424 1527.56 656.554 1525.06 Q658.707 1522.53 658.707 1518.37 L658.707 1517.42 L654.47 1517.42 M662.966 1515.66 L662.966 1530.45 L658.707 1530.45 L658.707 1526.52 Q657.248 1528.88 655.072 1530.01 Q652.896 1531.12 649.748 1531.12 Q645.767 1531.12 643.406 1528.9 Q641.068 1526.65 641.068 1522.9 Q641.068 1518.53 643.984 1516.31 Q646.924 1514.09 652.734 1514.09 L658.707 1514.09 L658.707 1513.67 Q658.707 1510.73 656.762 1509.13 Q654.841 1507.51 651.346 1507.51 Q649.123 1507.51 647.017 1508.04 Q644.91 1508.58 642.966 1509.64 L642.966 1505.71 Q645.304 1504.8 647.503 1504.36 Q649.702 1503.9 651.785 1503.9 Q657.41 1503.9 660.188 1506.82 Q662.966 1509.73 662.966 1515.66 Z" fill="#000000" fill-rule="evenodd" fill-opacity="1" /><path clip-path="url(#clip2700)" d="M 0 0 M678.22 1532.86 Q676.415 1537.49 674.702 1538.9 Q672.989 1540.31 670.119 1540.31 L666.716 1540.31 L666.716 1536.75 L669.216 1536.75 Q670.975 1536.75 671.947 1535.91 Q672.919 1535.08 674.1 1531.98 L674.864 1530.03 L664.378 1504.53 L668.892 1504.53 L676.994 1524.8 L685.095 1504.53 L689.609 1504.53 L678.22 1532.86 Z" fill="#000000" fill-rule="evenodd" fill-opacity="1" /><polyline clip-path="url(#clip2700)" style="stroke:#000000; stroke-width:3.2; stroke-opacity:1; fill:none" points="
  866.917,1458.82 833.609,1513.17 713.609,1513.17 
  "/>
<path clip-path="url(#clip2700)" d="
M1200 915.276 L1133.37 1549.26 L1144.44 1550.33 L1155.53 1551.2 L1166.64 1551.88 L1177.75 1552.37 L1188.87 1552.66 L1200 1552.76 L1211.13 1552.66 L1222.25 1552.37 
  L1233.36 1551.88 L1244.47 1551.2 L1255.56 1550.33 L1266.63 1549.26 L1277.69 1548 L1288.72 1546.55 L1299.72 1544.91 L1310.7 1543.07 L1321.64 1541.04 L1332.54 1538.83 
  L1343.4 1536.42 L1354.22 1533.82 L1364.99 1531.03 L1375.71 1528.06 L1386.38 1524.9 L1396.99 1521.56 L1407.54 1518.03 L1418.03 1514.31 L1428.45 1510.41 L1438.8 1506.34 
  L1449.08 1502.08 L1459.29 1497.64 L1469.41 1493.03 L1479.45 1488.24 L1489.41 1483.27 L1499.28 1478.14 L1509.06 1472.83 L1518.74 1467.35 L1528.33 1461.7 L1537.81 1455.89 
  L1547.2 1449.91 L1556.47 1443.77 L1565.64 1437.47 L1574.7 1431.01 L1583.65 1424.39 L1592.47 1417.62 L1601.18 1410.69 L1609.76 1403.61 L1618.22 1396.39 L1626.56 1389.02 
  L1634.76 1381.5 L1642.83 1373.84 L1650.77 1366.04 L1658.56 1358.11 L1666.22 1350.04 L1673.74 1341.83 L1681.11 1333.5  Z
  " fill="#cda161" fill-rule="evenodd" fill-opacity="1"/>
<path clip-path="url(#clip2700)" d="M 0 0 M1623.25 1551.57 L1623.25 1556.13 Q1620.58 1554.85 1618.22 1554.23 Q1615.86 1553.6 1613.66 1553.6 Q1609.84 1553.6 1607.76 1555.08 Q1605.7 1556.56 1605.7 1559.3 Q1605.7 1561.59 1607.07 1562.77 Q1608.45 1563.93 1612.3 1564.64 L1615.12 1565.22 Q1620.35 1566.22 1622.83 1568.74 Q1625.33 1571.24 1625.33 1575.45 Q1625.33 1580.48 1621.95 1583.07 Q1618.59 1585.66 1612.09 1585.66 Q1609.64 1585.66 1606.86 1585.11 Q1604.1 1584.55 1601.14 1583.46 L1601.14 1578.65 Q1603.99 1580.25 1606.72 1581.06 Q1609.45 1581.87 1612.09 1581.87 Q1616.09 1581.87 1618.27 1580.29 Q1620.45 1578.72 1620.45 1575.8 Q1620.45 1573.25 1618.87 1571.82 Q1617.32 1570.38 1613.76 1569.67 L1610.91 1569.11 Q1605.68 1568.07 1603.34 1565.85 Q1601 1563.63 1601 1559.67 Q1601 1555.08 1604.22 1552.44 Q1607.46 1549.81 1613.13 1549.81 Q1615.56 1549.81 1618.08 1550.25 Q1620.61 1550.69 1623.25 1551.57 Z" fill="#000000" fill-rule="evenodd" fill-opacity="1" /><path clip-path="url(#clip2700)" d="M 0 0 M1641.58 1571.96 Q1636.42 1571.96 1634.43 1573.14 Q1632.44 1574.32 1632.44 1577.17 Q1632.44 1579.44 1633.92 1580.78 Q1635.42 1582.1 1637.99 1582.1 Q1641.53 1582.1 1643.66 1579.6 Q1645.82 1577.07 1645.82 1572.91 L1645.82 1571.96 L1641.58 1571.96 M1650.07 1570.2 L1650.07 1584.99 L1645.82 1584.99 L1645.82 1581.06 Q1644.36 1583.42 1642.18 1584.55 Q1640.01 1585.66 1636.86 1585.66 Q1632.88 1585.66 1630.51 1583.44 Q1628.18 1581.19 1628.18 1577.44 Q1628.18 1573.07 1631.09 1570.85 Q1634.03 1568.63 1639.84 1568.63 L1645.82 1568.63 L1645.82 1568.21 Q1645.82 1565.27 1643.87 1563.67 Q1641.95 1562.05 1638.45 1562.05 Q1636.23 1562.05 1634.13 1562.58 Q1632.02 1563.12 1630.07 1564.18 L1630.07 1560.25 Q1632.41 1559.34 1634.61 1558.9 Q1636.81 1558.44 1638.89 1558.44 Q1644.52 1558.44 1647.3 1561.36 Q1650.07 1564.27 1650.07 1570.2 Z" fill="#000000" fill-rule="evenodd" fill-opacity="1" /><path clip-path="url(#clip2700)" d="M 0 0 M1658.76 1551.7 L1658.76 1559.06 L1667.53 1559.06 L1667.53 1562.38 L1658.76 1562.38 L1658.76 1576.45 Q1658.76 1579.62 1659.61 1580.52 Q1660.49 1581.43 1663.15 1581.43 L1667.53 1581.43 L1667.53 1584.99 L1663.15 1584.99 Q1658.22 1584.99 1656.35 1583.16 Q1654.47 1581.31 1654.47 1576.45 L1654.47 1562.38 L1651.35 1562.38 L1651.35 1559.06 L1654.47 1559.06 L1654.47 1551.7 L1658.76 1551.7 Z" fill="#000000" fill-rule="evenodd" fill-opacity="1" /><path clip-path="url(#clip2700)" d="M 0 0 M1671.56 1574.76 L1671.56 1559.06 L1675.82 1559.06 L1675.82 1574.6 Q1675.82 1578.28 1677.25 1580.13 Q1678.69 1581.96 1681.56 1581.96 Q1685.01 1581.96 1687 1579.76 Q1689.01 1577.56 1689.01 1573.76 L1689.01 1559.06 L1693.27 1559.06 L1693.27 1584.99 L1689.01 1584.99 L1689.01 1581.01 Q1687.46 1583.37 1685.4 1584.53 Q1683.36 1585.66 1680.65 1585.66 Q1676.19 1585.66 1673.87 1582.88 Q1671.56 1580.11 1671.56 1574.76 M1682.27 1558.44 L1682.27 1558.44 Z" fill="#000000" fill-rule="evenodd" fill-opacity="1" /><path clip-path="url(#clip2700)" d="M 0 0 M1712.76 1563.05 Q1712.04 1562.63 1711.19 1562.44 Q1710.35 1562.24 1709.33 1562.24 Q1705.72 1562.24 1703.78 1564.6 Q1701.86 1566.94 1701.86 1571.33 L1701.86 1584.99 L1697.57 1584.99 L1697.57 1559.06 L1701.86 1559.06 L1701.86 1563.09 Q1703.2 1560.73 1705.35 1559.6 Q1707.51 1558.44 1710.58 1558.44 Q1711.02 1558.44 1711.56 1558.51 Q1712.09 1558.56 1712.74 1558.67 L1712.76 1563.05 Z" fill="#000000" fill-rule="evenodd" fill-opacity="1" /><path clip-path="url(#clip2700)" d="M 0 0 M1733.45 1563 L1733.45 1548.97 L1737.71 1548.97 L1737.71 1584.99 L1733.45 1584.99 L1733.45 1581.1 Q1732.11 1583.42 1730.05 1584.55 Q1728.01 1585.66 1725.14 1585.66 Q1720.44 1585.66 1717.48 1581.91 Q1714.54 1578.16 1714.54 1572.05 Q1714.54 1565.94 1717.48 1562.19 Q1720.44 1558.44 1725.14 1558.44 Q1728.01 1558.44 1730.05 1559.57 Q1732.11 1560.69 1733.45 1563 M1718.94 1572.05 Q1718.94 1576.75 1720.86 1579.44 Q1722.81 1582.1 1726.19 1582.1 Q1729.57 1582.1 1731.51 1579.44 Q1733.45 1576.75 1733.45 1572.05 Q1733.45 1567.35 1731.51 1564.69 Q1729.57 1562 1726.19 1562 Q1722.81 1562 1720.86 1564.69 Q1718.94 1567.35 1718.94 1572.05 Z" fill="#000000" fill-rule="evenodd" fill-opacity="1" /><path clip-path="url(#clip2700)" d="M 0 0 M1753.96 1571.96 Q1748.8 1571.96 1746.81 1573.14 Q1744.82 1574.32 1744.82 1577.17 Q1744.82 1579.44 1746.3 1580.78 Q1747.81 1582.1 1750.38 1582.1 Q1753.92 1582.1 1756.05 1579.6 Q1758.2 1577.07 1758.2 1572.91 L1758.2 1571.96 L1753.96 1571.96 M1762.46 1570.2 L1762.46 1584.99 L1758.2 1584.99 L1758.2 1581.06 Q1756.74 1583.42 1754.57 1584.55 Q1752.39 1585.66 1749.24 1585.66 Q1745.26 1585.66 1742.9 1583.44 Q1740.56 1581.19 1740.56 1577.44 Q1740.56 1573.07 1743.48 1570.85 Q1746.42 1568.63 1752.23 1568.63 L1758.2 1568.63 L1758.2 1568.21 Q1758.2 1565.27 1756.25 1563.67 Q1754.33 1562.05 1750.84 1562.05 Q1748.62 1562.05 1746.51 1562.58 Q1744.4 1563.12 1742.46 1564.18 L1742.46 1560.25 Q1744.8 1559.34 1747 1558.9 Q1749.19 1558.44 1751.28 1558.44 Q1756.9 1558.44 1759.68 1561.36 Q1762.46 1564.27 1762.46 1570.2 Z" fill="#000000" fill-rule="evenodd" fill-opacity="1" /><path clip-path="url(#clip2700)" d="M 0 0 M1777.71 1587.4 Q1775.91 1592.03 1774.19 1593.44 Q1772.48 1594.85 1769.61 1594.85 L1766.21 1594.85 L1766.21 1591.29 L1768.71 1591.29 Q1770.47 1591.29 1771.44 1590.45 Q1772.41 1589.62 1773.59 1586.52 L1774.36 1584.57 L1763.87 1559.06 L1768.38 1559.06 L1776.49 1579.34 L1784.59 1559.06 L1789.1 1559.06 L1777.71 1587.4 Z" fill="#000000" fill-rule="evenodd" fill-opacity="1" /><polyline clip-path="url(#clip2700)" style="stroke:#000000; stroke-width:3.2; stroke-opacity:1; fill:none" points="
  1433.64,1508.4 1457,1567.71 1577,1567.71 
  "/>
<path clip-path="url(#clip2700)" d="
M1200 915.276 L1681.11 1333.5 L1688.34 1325.04 L1695.42 1316.45 L1702.34 1307.75 L1709.11 1298.92 L1715.73 1289.98 L1722.19 1280.92 L1728.5 1271.75 L1734.64 1262.47 
  L1740.61 1253.09 L1746.43 1243.6 L1752.07 1234.02 L1757.55 1224.33 L1762.86 1214.55 L1768 1204.69 L1772.96 1194.73 L1777.75 1184.69 L1782.37 1174.56 L1786.8 1164.36 
  L1791.06 1154.08 L1795.14 1143.73 L1799.04 1133.31 L1802.75 1122.82 L1806.28 1112.27 L1809.63 1101.66 L1812.79 1090.99 L1815.76 1080.27 L1818.54 1069.5 L1821.14 1058.68 
  L1823.55 1047.82 L1825.77 1036.91 L1827.8 1025.97 L1829.63 1015 L1831.28 1004 L1832.73 992.965 L1833.99 981.91 L1835.05 970.836 L1835.93 959.744 L1836.61 948.639 
  L1837.09 937.523 L1837.38 926.401 L1837.48 915.276 L1837.38 904.15  Z
  " fill="#807066" fill-rule="evenodd" fill-opacity="1"/>
<path clip-path="url(#clip2700)" d="M 0 0 M2025.18 1138.96 L2025.18 1143.52 Q2022.52 1142.25 2020.16 1141.63 Q2017.8 1141 2015.6 1141 Q2011.78 1141 2009.7 1142.48 Q2007.64 1143.96 2007.64 1146.7 Q2007.64 1148.99 2009 1150.17 Q2010.39 1151.33 2014.24 1152.04 L2017.06 1152.62 Q2022.29 1153.62 2024.77 1156.14 Q2027.27 1158.64 2027.27 1162.85 Q2027.27 1167.88 2023.89 1170.47 Q2020.53 1173.06 2014.03 1173.06 Q2011.57 1173.06 2008.8 1172.51 Q2006.04 1171.95 2003.08 1170.86 L2003.08 1166.05 Q2005.93 1167.64 2008.66 1168.45 Q2011.39 1169.26 2014.03 1169.26 Q2018.03 1169.26 2020.21 1167.69 Q2022.38 1166.12 2022.38 1163.2 Q2022.38 1160.65 2020.81 1159.22 Q2019.26 1157.78 2015.69 1157.07 L2012.85 1156.51 Q2007.62 1155.47 2005.28 1153.25 Q2002.94 1151.02 2002.94 1147.07 Q2002.94 1142.48 2006.16 1139.84 Q2009.4 1137.2 2015.07 1137.2 Q2017.5 1137.2 2020.02 1137.64 Q2022.55 1138.08 2025.18 1138.96 Z" fill="#000000" fill-rule="evenodd" fill-opacity="1" /><path clip-path="url(#clip2700)" d="M 0 0 M2031.3 1162.16 L2031.3 1146.46 L2035.55 1146.46 L2035.55 1162 Q2035.55 1165.68 2036.99 1167.53 Q2038.43 1169.36 2041.3 1169.36 Q2044.74 1169.36 2046.74 1167.16 Q2048.75 1164.96 2048.75 1161.16 L2048.75 1146.46 L2053.01 1146.46 L2053.01 1172.39 L2048.75 1172.39 L2048.75 1168.41 Q2047.2 1170.77 2045.14 1171.93 Q2043.1 1173.06 2040.39 1173.06 Q2035.93 1173.06 2033.61 1170.28 Q2031.3 1167.51 2031.3 1162.16 M2042.01 1145.84 L2042.01 1145.84 Z" fill="#000000" fill-rule="evenodd" fill-opacity="1" /><path clip-path="url(#clip2700)" d="M 0 0 M2079.03 1156.74 L2079.03 1172.39 L2074.77 1172.39 L2074.77 1156.88 Q2074.77 1153.2 2073.33 1151.37 Q2071.9 1149.54 2069.03 1149.54 Q2065.58 1149.54 2063.59 1151.74 Q2061.6 1153.94 2061.6 1157.74 L2061.6 1172.39 L2057.31 1172.39 L2057.31 1146.46 L2061.6 1146.46 L2061.6 1150.49 Q2063.12 1148.15 2065.18 1147 Q2067.27 1145.84 2069.98 1145.84 Q2074.44 1145.84 2076.74 1148.62 Q2079.03 1151.37 2079.03 1156.74 Z" fill="#000000" fill-rule="evenodd" fill-opacity="1" /><path clip-path="url(#clip2700)" d="M 0 0 M2100.55 1150.4 L2100.55 1136.37 L2104.81 1136.37 L2104.81 1172.39 L2100.55 1172.39 L2100.55 1168.5 Q2099.21 1170.82 2097.15 1171.95 Q2095.11 1173.06 2092.24 1173.06 Q2087.55 1173.06 2084.58 1169.31 Q2081.64 1165.56 2081.64 1159.45 Q2081.64 1153.34 2084.58 1149.59 Q2087.55 1145.84 2092.24 1145.84 Q2095.11 1145.84 2097.15 1146.97 Q2099.21 1148.08 2100.55 1150.4 M2086.04 1159.45 Q2086.04 1164.15 2087.96 1166.83 Q2089.91 1169.5 2093.29 1169.5 Q2096.67 1169.5 2098.61 1166.83 Q2100.55 1164.15 2100.55 1159.45 Q2100.55 1154.75 2098.61 1152.09 Q2096.67 1149.4 2093.29 1149.4 Q2089.91 1149.4 2087.96 1152.09 Q2086.04 1154.75 2086.04 1159.45 Z" fill="#000000" fill-rule="evenodd" fill-opacity="1" /><path clip-path="url(#clip2700)" d="M 0 0 M2121.06 1159.36 Q2115.9 1159.36 2113.91 1160.54 Q2111.92 1161.72 2111.92 1164.57 Q2111.92 1166.83 2113.4 1168.18 Q2114.91 1169.5 2117.48 1169.5 Q2121.02 1169.5 2123.15 1167 Q2125.3 1164.47 2125.3 1160.31 L2125.3 1159.36 L2121.06 1159.36 M2129.56 1157.6 L2129.56 1172.39 L2125.3 1172.39 L2125.3 1168.45 Q2123.84 1170.82 2121.67 1171.95 Q2119.49 1173.06 2116.34 1173.06 Q2112.36 1173.06 2110 1170.84 Q2107.66 1168.59 2107.66 1164.84 Q2107.66 1160.47 2110.58 1158.25 Q2113.52 1156.02 2119.33 1156.02 L2125.3 1156.02 L2125.3 1155.61 Q2125.3 1152.67 2123.36 1151.07 Q2121.43 1149.45 2117.94 1149.45 Q2115.72 1149.45 2113.61 1149.98 Q2111.5 1150.51 2109.56 1151.58 L2109.56 1147.64 Q2111.9 1146.74 2114.1 1146.3 Q2116.29 1145.84 2118.38 1145.84 Q2124 1145.84 2126.78 1148.76 Q2129.56 1151.67 2129.56 1157.6 Z" fill="#000000" fill-rule="evenodd" fill-opacity="1" /><path clip-path="url(#clip2700)" d="M 0 0 M2144.81 1174.8 Q2143.01 1179.43 2141.29 1180.84 Q2139.58 1182.25 2136.71 1182.25 L2133.31 1182.25 L2133.31 1178.69 L2135.81 1178.69 Q2137.57 1178.69 2138.54 1177.85 Q2139.51 1177.02 2140.69 1173.92 L2141.46 1171.97 L2130.97 1146.46 L2135.48 1146.46 L2143.59 1166.74 L2151.69 1146.46 L2156.2 1146.46 L2144.81 1174.8 Z" fill="#000000" fill-rule="evenodd" fill-opacity="1" /><polyline clip-path="url(#clip2700)" style="stroke:#000000; stroke-width:3.2; stroke-opacity:1; fill:none" points="
  1799.04,1133.31 1858.94,1155.11 1978.94,1155.11 
  "/>
</svg>
