<?xml version="1.0" encoding="utf-8"?>
<svg xmlns="http://www.w3.org/2000/svg" xmlns:xlink="http://www.w3.org/1999/xlink" width="600" height="400" viewBox="0 0 2400 1600">
<defs>
  <clipPath id="clip2400">
    <rect x="0" y="0" width="2400" height="1600"/>
  </clipPath>
</defs>
<path clip-path="url(#clip2400)" d="
M0 1600 L2400 1600 L2400 0 L0 0  Z
  " fill="#ffffff" fill-rule="evenodd" fill-opacity="1"/>
<defs>
  <clipPath id="clip2401">
    <rect x="480" y="0" width="1681" height="1600"/>
  </clipPath>
</defs>
<path clip-path="url(#clip2400)" d="
M152.27 1486.45 L2352.76 1486.45 L2352.76 47.2441 L152.27 47.2441  Z
  " fill="#ffffff" fill-rule="evenodd" fill-opacity="1"/>
<defs>
  <clipPath id="clip2402">
    <rect x="152" y="47" width="2201" height="1440"/>
  </clipPath>
</defs>
<polyline clip-path="url(#clip2402)" style="stroke:#000000; stroke-width:2; stroke-opacity:0.1; fill:none" points="
  208.844,1486.45 208.844,47.2441 
  "/>
<polyline clip-path="url(#clip2402)" style="stroke:#000000; stroke-width:2; stroke-opacity:0.1; fill:none" points="
  779.155,1486.45 779.155,47.2441 
  "/>
<polyline clip-path="url(#clip2402)" style="stroke:#000000; stroke-width:2; stroke-opacity:0.1; fill:none" points="
  1349.47,1486.45 1349.47,47.2441 
  "/>
<polyline clip-path="url(#clip2402)" style="stroke:#000000; stroke-width:2; stroke-opacity:0.1; fill:none" points="
  1919.78,1486.45 1919.78,47.2441 
  "/>
<polyline clip-path="url(#clip2402)" style="stroke:#000000; stroke-width:2; stroke-opacity:0.1; fill:none" points="
  152.27,1471.79 2352.76,1471.79 
  "/>
<polyline clip-path="url(#clip2402)" style="stroke:#000000; stroke-width:2; stroke-opacity:0.1; fill:none" points="
  152.27,1252.39 2352.76,1252.39 
  "/>
<polyline clip-path="url(#clip2402)" style="stroke:#000000; stroke-width:2; stroke-opacity:0.1; fill:none" points="
  152.27,1032.99 2352.76,1032.99 
  "/>
<polyline clip-path="url(#clip2402)" style="stroke:#000000; stroke-width:2; stroke-opacity:0.1; fill:none" points="
  152.27,813.589 2352.76,813.589 
  "/>
<polyline clip-path="url(#clip2402)" style="stroke:#000000; stroke-width:2; stroke-opacity:0.1; fill:none" points="
  152.27,594.188 2352.76,594.188 
  "/>
<polyline clip-path="url(#clip2402)" style="stroke:#000000; stroke-width:2; stroke-opacity:0.1; fill:none" points="
  152.27,374.788 2352.76,374.788 
  "/>
<polyline clip-path="url(#clip2402)" style="stroke:#000000; stroke-width:2; stroke-opacity:0.1; fill:none" points="
  152.27,155.387 2352.76,155.387 
  "/>
<polyline clip-path="url(#clip2400)" style="stroke:#000000; stroke-width:4; stroke-opacity:1; fill:none" points="
  152.27,1486.45 2352.76,1486.45 
  "/>
<polyline clip-path="url(#clip2400)" style="stroke:#000000; stroke-width:4; stroke-opacity:1; fill:none" points="
  152.27,1486.45 152.27,47.2441 
  "/>
<polyline clip-path="url(#clip2400)" style="stroke:#000000; stroke-width:4; stroke-opacity:1; fill:none" points="
  208.844,1486.45 208.844,1469.18 
  "/>
<polyline clip-path="url(#clip2400)" style="stroke:#000000; stroke-width:4; stroke-opacity:1; fill:none" points="
  779.155,1486.45 779.155,1469.18 
  "/>
<polyline clip-path="url(#clip2400)" style="stroke:#000000; stroke-width:4; stroke-opacity:1; fill:none" points="
  1349.47,1486.45 1349.47,1469.18 
  "/>
<polyline clip-path="url(#clip2400)" style="stroke:#000000; stroke-width:4; stroke-opacity:1; fill:none" points="
  1919.78,1486.45 1919.78,1469.18 
  "/>
<polyline clip-path="url(#clip2400)" style="stroke:#000000; stroke-width:4; stroke-opacity:1; fill:none" points="
  152.27,1471.79 178.675,1471.79 
  "/>
<polyline clip-path="url(#clip2400)" style="stroke:#000000; stroke-width:4; stroke-opacity:1; fill:none" points="
  152.27,1252.39 178.675,1252.39 
  "/>
<polyline clip-path="url(#clip2400)" style="stroke:#000000; stroke-width:4; stroke-opacity:1; fill:none" points="
  152.27,1032.99 178.675,1032.99 
  "/>
<polyline clip-path="url(#clip2400)" style="stroke:#000000; stroke-width:4; stroke-opacity:1; fill:none" points="
  152.27,813.589 178.675,813.589 
  "/>
<polyline clip-path="url(#clip2400)" style="stroke:#000000; stroke-width:4; stroke-opacity:1; fill:none" points="
  152.27,594.188 178.675,594.188 
  "/>
<polyline clip-path="url(#clip2400)" style="stroke:#000000; stroke-width:4; stroke-opacity:1; fill:none" points="
  152.27,374.788 178.675,374.788 
  "/>
<polyline clip-path="url(#clip2400)" style="stroke:#000000; stroke-width:4; stroke-opacity:1; fill:none" points="
  152.27,155.387 178.675,155.387 
  "/>
<path clip-path="url(#clip2400)" d="M 0 0 M208.844 1508.44 Q205.233 1508.44 203.405 1512 Q201.599 1515.55 201.599 1522.67 Q201.599 1529.78 203.405 1533.35 Q205.233 1536.89 208.844 1536.89 Q212.479 1536.89 214.284 1533.35 Q216.113 1529.78 216.113 1522.67 Q216.113 1515.55 214.284 1512 Q212.479 1508.44 208.844 1508.44 M208.844 1504.73 Q214.655 1504.73 217.71 1509.34 Q220.789 1513.92 220.789 1522.67 Q220.789 1531.4 217.71 1536.01 Q214.655 1540.59 208.844 1540.59 Q203.034 1540.59 199.956 1536.01 Q196.9 1531.4 196.9 1522.67 Q196.9 1513.92 199.956 1509.34 Q203.034 1504.73 208.844 1504.73 Z" fill="#000000" fill-rule="evenodd" fill-opacity="1" /><path clip-path="url(#clip2400)" d="M 0 0 M742.523 1535.98 L750.162 1535.98 L750.162 1509.62 L741.852 1511.29 L741.852 1507.03 L750.116 1505.36 L754.792 1505.36 L754.792 1535.98 L762.43 1535.98 L762.43 1539.92 L742.523 1539.92 L742.523 1535.98 Z" fill="#000000" fill-rule="evenodd" fill-opacity="1" /><path clip-path="url(#clip2400)" d="M 0 0 M777.5 1508.44 Q773.889 1508.44 772.06 1512 Q770.255 1515.55 770.255 1522.67 Q770.255 1529.78 772.06 1533.35 Q773.889 1536.89 777.5 1536.89 Q781.134 1536.89 782.94 1533.35 Q784.768 1529.78 784.768 1522.67 Q784.768 1515.55 782.94 1512 Q781.134 1508.44 777.5 1508.44 M777.5 1504.73 Q783.31 1504.73 786.366 1509.34 Q789.444 1513.92 789.444 1522.67 Q789.444 1531.4 786.366 1536.01 Q783.31 1540.59 777.5 1540.59 Q771.69 1540.59 768.611 1536.01 Q765.555 1531.4 765.555 1522.67 Q765.555 1513.92 768.611 1509.34 Q771.69 1504.73 777.5 1504.73 Z" fill="#000000" fill-rule="evenodd" fill-opacity="1" /><path clip-path="url(#clip2400)" d="M 0 0 M804.514 1508.44 Q800.903 1508.44 799.074 1512 Q797.268 1515.55 797.268 1522.67 Q797.268 1529.78 799.074 1533.35 Q800.903 1536.89 804.514 1536.89 Q808.148 1536.89 809.953 1533.35 Q811.782 1529.78 811.782 1522.67 Q811.782 1515.55 809.953 1512 Q808.148 1508.44 804.514 1508.44 M804.514 1504.73 Q810.324 1504.73 813.379 1509.34 Q816.458 1513.92 816.458 1522.67 Q816.458 1531.4 813.379 1536.01 Q810.324 1540.59 804.514 1540.59 Q798.703 1540.59 795.625 1536.01 Q792.569 1531.4 792.569 1522.67 Q792.569 1513.92 795.625 1509.34 Q798.703 1504.73 804.514 1504.73 Z" fill="#000000" fill-rule="evenodd" fill-opacity="1" /><path clip-path="url(#clip2400)" d="M 0 0 M1317.1 1535.98 L1333.42 1535.98 L1333.42 1539.92 L1311.48 1539.92 L1311.48 1535.98 Q1314.14 1533.23 1318.72 1528.6 Q1323.33 1523.95 1324.51 1522.61 Q1326.76 1520.08 1327.64 1518.35 Q1328.54 1516.59 1328.54 1514.9 Q1328.54 1512.14 1326.6 1510.41 Q1324.67 1508.67 1321.57 1508.67 Q1319.37 1508.67 1316.92 1509.43 Q1314.49 1510.2 1311.71 1511.75 L1311.71 1507.03 Q1314.54 1505.89 1316.99 1505.31 Q1319.44 1504.73 1321.48 1504.73 Q1326.85 1504.73 1330.04 1507.42 Q1333.24 1510.11 1333.24 1514.6 Q1333.24 1516.73 1332.43 1518.65 Q1331.64 1520.54 1329.54 1523.14 Q1328.96 1523.81 1325.85 1527.03 Q1322.75 1530.22 1317.1 1535.98 Z" fill="#000000" fill-rule="evenodd" fill-opacity="1" /><path clip-path="url(#clip2400)" d="M 0 0 M1348.49 1508.44 Q1344.88 1508.44 1343.05 1512 Q1341.25 1515.55 1341.25 1522.67 Q1341.25 1529.78 1343.05 1533.35 Q1344.88 1536.89 1348.49 1536.89 Q1352.13 1536.89 1353.93 1533.35 Q1355.76 1529.78 1355.76 1522.67 Q1355.76 1515.55 1353.93 1512 Q1352.13 1508.44 1348.49 1508.44 M1348.49 1504.73 Q1354.3 1504.73 1357.36 1509.34 Q1360.44 1513.92 1360.44 1522.67 Q1360.44 1531.4 1357.36 1536.01 Q1354.3 1540.59 1348.49 1540.59 Q1342.68 1540.59 1339.6 1536.01 Q1336.55 1531.4 1336.55 1522.67 Q1336.55 1513.92 1339.6 1509.34 Q1342.68 1504.73 1348.49 1504.73 Z" fill="#000000" fill-rule="evenodd" fill-opacity="1" /><path clip-path="url(#clip2400)" d="M 0 0 M1375.51 1508.44 Q1371.9 1508.44 1370.07 1512 Q1368.26 1515.55 1368.26 1522.67 Q1368.26 1529.78 1370.07 1533.35 Q1371.9 1536.89 1375.51 1536.89 Q1379.14 1536.89 1380.95 1533.35 Q1382.78 1529.78 1382.78 1522.67 Q1382.78 1515.55 1380.95 1512 Q1379.14 1508.44 1375.51 1508.44 M1375.51 1504.73 Q1381.32 1504.73 1384.37 1509.34 Q1387.45 1513.92 1387.45 1522.67 Q1387.45 1531.4 1384.37 1536.01 Q1381.32 1540.59 1375.51 1540.59 Q1369.7 1540.59 1366.62 1536.01 Q1363.56 1531.4 1363.56 1522.67 Q1363.56 1513.92 1366.62 1509.34 Q1369.7 1504.73 1375.51 1504.73 Z" fill="#000000" fill-rule="evenodd" fill-opacity="1" /><path clip-path="url(#clip2400)" d="M 0 0 M1897.01 1521.29 Q1900.37 1522 1902.24 1524.27 Q1904.14 1526.54 1904.14 1529.87 Q1904.14 1534.99 1900.62 1537.79 Q1897.1 1540.59 1890.62 1540.59 Q1888.45 1540.59 1886.13 1540.15 Q1883.84 1539.73 1881.39 1538.88 L1881.39 1534.36 Q1883.33 1535.5 1885.64 1536.08 Q1887.96 1536.66 1890.48 1536.66 Q1894.88 1536.66 1897.17 1534.92 Q1899.49 1533.18 1899.49 1529.87 Q1899.49 1526.82 1897.33 1525.11 Q1895.2 1523.37 1891.39 1523.37 L1887.36 1523.37 L1887.36 1519.53 L1891.57 1519.53 Q1895.02 1519.53 1896.85 1518.16 Q1898.68 1516.77 1898.68 1514.18 Q1898.68 1511.52 1896.78 1510.11 Q1894.9 1508.67 1891.39 1508.67 Q1889.46 1508.67 1887.26 1509.09 Q1885.07 1509.5 1882.43 1510.38 L1882.43 1506.22 Q1885.09 1505.48 1887.4 1505.11 Q1889.74 1504.73 1891.8 1504.73 Q1897.13 1504.73 1900.23 1507.17 Q1903.33 1509.57 1903.33 1513.69 Q1903.33 1516.56 1901.69 1518.55 Q1900.04 1520.52 1897.01 1521.29 Z" fill="#000000" fill-rule="evenodd" fill-opacity="1" /><path clip-path="url(#clip2400)" d="M 0 0 M1919.21 1508.44 Q1915.6 1508.44 1913.77 1512 Q1911.96 1515.55 1911.96 1522.67 Q1911.96 1529.78 1913.77 1533.35 Q1915.6 1536.89 1919.21 1536.89 Q1922.84 1536.89 1924.65 1533.35 Q1926.48 1529.78 1926.48 1522.67 Q1926.48 1515.55 1924.65 1512 Q1922.84 1508.44 1919.21 1508.44 M1919.21 1504.73 Q1925.02 1504.73 1928.07 1509.34 Q1931.15 1513.92 1931.15 1522.67 Q1931.15 1531.4 1928.07 1536.01 Q1925.02 1540.59 1919.21 1540.59 Q1913.4 1540.59 1910.32 1536.01 Q1907.26 1531.4 1907.26 1522.67 Q1907.26 1513.92 1910.32 1509.34 Q1913.4 1504.73 1919.21 1504.73 Z" fill="#000000" fill-rule="evenodd" fill-opacity="1" /><path clip-path="url(#clip2400)" d="M 0 0 M1946.22 1508.44 Q1942.61 1508.44 1940.78 1512 Q1938.98 1515.55 1938.98 1522.67 Q1938.98 1529.78 1940.78 1533.35 Q1942.61 1536.89 1946.22 1536.89 Q1949.86 1536.89 1951.66 1533.35 Q1953.49 1529.78 1953.49 1522.67 Q1953.49 1515.55 1951.66 1512 Q1949.86 1508.44 1946.22 1508.44 M1946.22 1504.73 Q1952.03 1504.73 1955.09 1509.34 Q1958.17 1513.92 1958.17 1522.67 Q1958.17 1531.4 1955.09 1536.01 Q1952.03 1540.59 1946.22 1540.59 Q1940.41 1540.59 1937.33 1536.01 Q1934.28 1531.4 1934.28 1522.67 Q1934.28 1513.92 1937.33 1509.34 Q1940.41 1504.73 1946.22 1504.73 Z" fill="#000000" fill-rule="evenodd" fill-opacity="1" /><path clip-path="url(#clip2400)" d="M 0 0 M63.9875 1474.19 L76.4643 1474.19 L76.4643 1477.98 L63.9875 1477.98 L63.9875 1474.19 Z" fill="#000000" fill-rule="evenodd" fill-opacity="1" /><path clip-path="url(#clip2400)" d="M 0 0 M82.3439 1485.13 L89.9827 1485.13 L89.9827 1458.77 L81.6726 1460.44 L81.6726 1456.18 L89.9364 1454.51 L94.6123 1454.51 L94.6123 1485.13 L102.251 1485.13 L102.251 1489.07 L82.3439 1489.07 L82.3439 1485.13 Z" fill="#000000" fill-rule="evenodd" fill-opacity="1" /><path clip-path="url(#clip2400)" d="M 0 0 M107.367 1454.51 L125.723 1454.51 L125.723 1458.45 L111.649 1458.45 L111.649 1466.92 Q112.668 1466.57 113.686 1466.41 Q114.705 1466.22 115.723 1466.22 Q121.51 1466.22 124.89 1469.39 Q128.27 1472.57 128.27 1477.98 Q128.27 1483.56 124.797 1486.66 Q121.325 1489.74 115.006 1489.74 Q112.83 1489.74 110.561 1489.37 Q108.316 1489 105.909 1488.26 L105.909 1483.56 Q107.992 1484.7 110.214 1485.25 Q112.436 1485.81 114.913 1485.81 Q118.918 1485.81 121.256 1483.7 Q123.594 1481.59 123.594 1477.98 Q123.594 1474.37 121.256 1472.26 Q118.918 1470.16 114.913 1470.16 Q113.038 1470.16 111.163 1470.57 Q109.311 1470.99 107.367 1471.87 L107.367 1454.51 Z" fill="#000000" fill-rule="evenodd" fill-opacity="1" /><path clip-path="url(#clip2400)" d="M 0 0 M62.9921 1254.79 L75.4689 1254.79 L75.4689 1258.58 L62.9921 1258.58 L62.9921 1254.79 Z" fill="#000000" fill-rule="evenodd" fill-opacity="1" /><path clip-path="url(#clip2400)" d="M 0 0 M81.3485 1265.73 L88.9874 1265.73 L88.9874 1239.37 L80.6772 1241.04 L80.6772 1236.78 L88.9411 1235.11 L93.617 1235.11 L93.617 1265.73 L101.256 1265.73 L101.256 1269.67 L81.3485 1269.67 L81.3485 1265.73 Z" fill="#000000" fill-rule="evenodd" fill-opacity="1" /><path clip-path="url(#clip2400)" d="M 0 0 M116.325 1238.19 Q112.714 1238.19 110.885 1241.75 Q109.08 1245.29 109.08 1252.42 Q109.08 1259.53 110.885 1263.1 Q112.714 1266.64 116.325 1266.64 Q119.959 1266.64 121.765 1263.1 Q123.594 1259.53 123.594 1252.42 Q123.594 1245.29 121.765 1241.75 Q119.959 1238.19 116.325 1238.19 M116.325 1234.48 Q122.135 1234.48 125.191 1239.09 Q128.27 1243.67 128.27 1252.42 Q128.27 1261.15 125.191 1265.76 Q122.135 1270.34 116.325 1270.34 Q110.515 1270.34 107.436 1265.76 Q104.381 1261.15 104.381 1252.42 Q104.381 1243.67 107.436 1239.09 Q110.515 1234.48 116.325 1234.48 Z" fill="#000000" fill-rule="evenodd" fill-opacity="1" /><path clip-path="url(#clip2400)" d="M 0 0 M89.7744 1035.38 L102.251 1035.38 L102.251 1039.18 L89.7744 1039.18 L89.7744 1035.38 Z" fill="#000000" fill-rule="evenodd" fill-opacity="1" /><path clip-path="url(#clip2400)" d="M 0 0 M107.367 1015.71 L125.723 1015.71 L125.723 1019.64 L111.649 1019.64 L111.649 1028.12 Q112.668 1027.77 113.686 1027.61 Q114.705 1027.42 115.723 1027.42 Q121.51 1027.42 124.89 1030.59 Q128.27 1033.76 128.27 1039.18 Q128.27 1044.76 124.797 1047.86 Q121.325 1050.94 115.006 1050.94 Q112.83 1050.94 110.561 1050.57 Q108.316 1050.2 105.909 1049.46 L105.909 1044.76 Q107.992 1045.89 110.214 1046.45 Q112.436 1047.01 114.913 1047.01 Q118.918 1047.01 121.256 1044.9 Q123.594 1042.79 123.594 1039.18 Q123.594 1035.57 121.256 1033.46 Q118.918 1031.36 114.913 1031.36 Q113.038 1031.36 111.163 1031.77 Q109.311 1032.19 107.367 1033.07 L107.367 1015.71 Z" fill="#000000" fill-rule="evenodd" fill-opacity="1" /><path clip-path="url(#clip2400)" d="M 0 0 M116.325 799.387 Q112.714 799.387 110.885 802.952 Q109.08 806.494 109.08 813.623 Q109.08 820.73 110.885 824.295 Q112.714 827.836 116.325 827.836 Q119.959 827.836 121.765 824.295 Q123.594 820.73 123.594 813.623 Q123.594 806.494 121.765 802.952 Q119.959 799.387 116.325 799.387 M116.325 795.684 Q122.135 795.684 125.191 800.29 Q128.27 804.873 128.27 813.623 Q128.27 822.35 125.191 826.957 Q122.135 831.54 116.325 831.54 Q110.515 831.54 107.436 826.957 Q104.381 822.35 104.381 813.623 Q104.381 804.873 107.436 800.29 Q110.515 795.684 116.325 795.684 Z" fill="#000000" fill-rule="evenodd" fill-opacity="1" /><path clip-path="url(#clip2400)" d="M 0 0 M107.367 576.908 L125.723 576.908 L125.723 580.843 L111.649 580.843 L111.649 589.316 Q112.668 588.968 113.686 588.806 Q114.705 588.621 115.723 588.621 Q121.51 588.621 124.89 591.792 Q128.27 594.964 128.27 600.38 Q128.27 605.959 124.797 609.061 Q121.325 612.139 115.006 612.139 Q112.83 612.139 110.561 611.769 Q108.316 611.399 105.909 610.658 L105.909 605.959 Q107.992 607.093 110.214 607.649 Q112.436 608.204 114.913 608.204 Q118.918 608.204 121.256 606.098 Q123.594 603.991 123.594 600.38 Q123.594 596.769 121.256 594.663 Q118.918 592.556 114.913 592.556 Q113.038 592.556 111.163 592.973 Q109.311 593.39 107.367 594.269 L107.367 576.908 Z" fill="#000000" fill-rule="evenodd" fill-opacity="1" /><path clip-path="url(#clip2400)" d="M 0 0 M81.3485 388.133 L88.9874 388.133 L88.9874 361.767 L80.6772 363.434 L80.6772 359.174 L88.9411 357.508 L93.617 357.508 L93.617 388.133 L101.256 388.133 L101.256 392.068 L81.3485 392.068 L81.3485 388.133 Z" fill="#000000" fill-rule="evenodd" fill-opacity="1" /><path clip-path="url(#clip2400)" d="M 0 0 M116.325 360.586 Q112.714 360.586 110.885 364.151 Q109.08 367.693 109.08 374.822 Q109.08 381.929 110.885 385.494 Q112.714 389.035 116.325 389.035 Q119.959 389.035 121.765 385.494 Q123.594 381.929 123.594 374.822 Q123.594 367.693 121.765 364.151 Q119.959 360.586 116.325 360.586 M116.325 356.883 Q122.135 356.883 125.191 361.489 Q128.27 366.072 128.27 374.822 Q128.27 383.549 125.191 388.156 Q122.135 392.739 116.325 392.739 Q110.515 392.739 107.436 388.156 Q104.381 383.549 104.381 374.822 Q104.381 366.072 107.436 361.489 Q110.515 356.883 116.325 356.883 Z" fill="#000000" fill-rule="evenodd" fill-opacity="1" /><path clip-path="url(#clip2400)" d="M 0 0 M82.3439 168.732 L89.9827 168.732 L89.9827 142.366 L81.6726 144.033 L81.6726 139.774 L89.9364 138.107 L94.6123 138.107 L94.6123 168.732 L102.251 168.732 L102.251 172.667 L82.3439 172.667 L82.3439 168.732 Z" fill="#000000" fill-rule="evenodd" fill-opacity="1" /><path clip-path="url(#clip2400)" d="M 0 0 M107.367 138.107 L125.723 138.107 L125.723 142.042 L111.649 142.042 L111.649 150.515 Q112.668 150.167 113.686 150.005 Q114.705 149.82 115.723 149.82 Q121.51 149.82 124.89 152.991 Q128.27 156.163 128.27 161.579 Q128.27 167.158 124.797 170.26 Q121.325 173.338 115.006 173.338 Q112.83 173.338 110.561 172.968 Q108.316 172.598 105.909 171.857 L105.909 167.158 Q107.992 168.292 110.214 168.848 Q112.436 169.403 114.913 169.403 Q118.918 169.403 121.256 167.297 Q123.594 165.19 123.594 161.579 Q123.594 157.968 121.256 155.862 Q118.918 153.755 114.913 153.755 Q113.038 153.755 111.163 154.172 Q109.311 154.589 107.367 155.468 L107.367 138.107 Z" fill="#000000" fill-rule="evenodd" fill-opacity="1" /><polyline clip-path="url(#clip2402)" style="stroke:#009af9; stroke-width:4; stroke-opacity:1; fill:none" points="
  214.547,1022.77 220.251,1041.85 225.954,1060.66 231.657,1079.19 237.36,1097.41 243.063,1115.32 248.766,1132.89 254.469,1150.1 260.172,1166.96 265.875,1183.42 
  271.579,1199.49 277.282,1215.15 282.985,1230.39 288.688,1245.18 294.391,1259.52 300.094,1273.4 305.797,1286.81 311.5,1299.72 317.203,1312.14 322.906,1324.05 
  328.61,1335.45 334.313,1346.32 340.016,1356.65 345.719,1366.44 351.422,1375.69 357.125,1384.37 362.828,1392.5 368.531,1400.06 374.234,1407.05 379.938,1413.47 
  385.641,1419.31 391.344,1424.57 397.047,1429.25 402.75,1433.34 408.453,1436.85 414.156,1439.78 419.859,1442.12 425.562,1443.89 431.265,1445.07 436.969,1445.68 
  442.672,1445.72 448.375,1445.18 454.078,1444.08 459.781,1442.43 465.484,1440.22 471.187,1437.46 476.89,1434.16 482.593,1430.34 488.297,1425.98 494,1421.12 
  499.703,1415.75 505.406,1409.88 511.109,1403.53 516.812,1396.71 522.515,1389.42 528.218,1381.68 533.921,1373.51 539.625,1364.9 545.328,1355.89 551.031,1346.48 
  556.734,1336.69 562.437,1326.53 568.14,1316.01 573.843,1305.16 579.546,1293.98 585.249,1282.49 590.952,1270.71 596.656,1258.66 602.359,1246.35 608.062,1233.8 
  613.765,1221.03 619.468,1208.05 625.171,1194.88 630.874,1181.54 636.577,1168.04 642.28,1154.42 647.984,1140.67 653.687,1126.82 659.39,1112.89 665.093,1098.9 
  670.796,1084.86 676.499,1070.8 682.202,1056.72 687.905,1042.66 693.608,1028.62 699.311,1014.62 705.015,1000.68 710.718,986.826 716.421,973.064 722.124,959.414 
  727.827,945.894 733.53,932.519 739.233,919.305 744.936,906.269 750.639,893.426 756.343,880.792 762.046,868.38 767.749,856.206 773.452,844.284 779.155,832.628 
  784.858,821.251 790.561,810.165 796.264,799.383 801.967,788.918 807.67,778.78 813.374,768.981 819.077,759.531 824.78,750.44 830.483,741.718 836.186,733.374 
  841.889,725.415 847.592,717.851 853.295,710.687 858.998,703.931 864.702,697.589 870.405,691.666 876.108,686.167 881.811,681.097 887.514,676.459 893.217,672.257 
  898.92,668.492 904.623,665.167 910.326,662.283 916.029,659.841 921.733,657.84 927.436,656.28 933.139,655.16 938.842,654.478 944.545,654.231 950.248,654.417 
  955.951,655.032 961.654,656.072 967.357,657.531 973.061,659.405 978.764,661.688 984.467,664.372 990.17,667.451 995.873,670.918 1001.58,674.763 1007.28,678.979 
  1012.98,683.556 1018.69,688.484 1024.39,693.754 1030.09,699.354 1035.79,705.274 1041.5,711.502 1047.2,718.025 1052.9,724.833 1058.61,731.91 1064.31,739.246 
  1070.01,746.825 1075.72,754.634 1081.42,762.659 1087.12,770.885 1092.83,779.298 1098.53,787.882 1104.23,796.623 1109.94,805.503 1115.64,814.509 1121.34,823.623 
  1127.04,832.83 1132.75,842.114 1138.45,851.457 1144.15,860.844 1149.86,870.258 1155.56,879.683 1161.26,889.101 1166.97,898.496 1172.67,907.851 1178.37,917.15 
  1184.08,926.376 1189.78,935.513 1195.48,944.544 1201.18,953.453 1206.89,962.223 1212.59,970.839 1218.29,979.285 1224,987.545 1229.7,995.603 1235.4,1003.45 
  1241.11,1011.06 1246.81,1018.42 1252.51,1025.53 1258.22,1032.36 1263.92,1038.9 1269.62,1045.14 1275.33,1051.07 1281.03,1056.67 1286.73,1061.93 1292.43,1066.84 
  1298.14,1071.39 1303.84,1075.57 1309.54,1079.36 1315.25,1082.76 1320.95,1085.76 1326.65,1088.35 1332.36,1090.52 1338.06,1092.26 1343.76,1093.57 1349.47,1094.43 
  1355.17,1094.85 1360.87,1094.82 1366.57,1094.33 1372.28,1093.37 1377.98,1091.95 1383.68,1090.07 1389.39,1087.71 1395.09,1084.88 1400.79,1081.57 1406.5,1077.79 
  1412.2,1073.53 1417.9,1068.8 1423.61,1063.6 1429.31,1057.92 1435.01,1051.77 1440.72,1045.16 1446.42,1038.09 1452.12,1030.55 1457.82,1022.57 1463.53,1014.14 
  1469.23,1005.26 1474.93,995.951 1480.64,986.214 1486.34,976.057 1492.04,965.49 1497.75,954.52 1503.45,943.158 1509.15,931.414 1514.86,919.299 1520.56,906.823 
  1526.26,893.999 1531.96,880.838 1537.67,867.354 1543.37,853.559 1549.07,839.468 1554.78,825.093 1560.48,810.451 1566.18,795.554 1571.89,780.42 1577.59,765.063 
  1583.29,749.5 1589,733.747 1594.7,717.82 1600.4,701.736 1606.11,685.513 1611.81,669.168 1617.51,652.719 1623.21,636.183 1628.92,619.579 1634.62,602.926 
  1640.32,586.24 1646.03,569.542 1651.73,552.849 1657.43,536.181 1663.14,519.555 1668.84,502.992 1674.54,486.509 1680.25,470.127 1685.95,453.862 1691.65,437.735 
  1697.35,421.763 1703.06,405.966 1708.76,390.362 1714.46,374.969 1720.17,359.806 1725.87,344.889 1731.57,330.238 1737.28,315.87 1742.98,301.801 1748.68,288.049 
  1754.39,274.631 1760.09,261.562 1765.79,248.86 1771.5,236.539 1777.2,224.616 1782.9,213.104 1788.6,202.019 1794.31,191.375 1800.01,181.185 1805.71,171.462 
  1811.42,162.22 1817.12,153.47 1822.82,145.225 1828.53,137.495 1834.23,130.291 1839.93,123.623 1845.64,117.501 1851.34,111.934 1857.04,106.93 1862.75,102.497 
  1868.45,98.6417 1874.15,95.3714 1879.85,92.6917 1885.56,90.6081 1891.26,89.125 1896.96,88.2466 1902.67,87.9763 1908.37,88.3167 1914.07,89.2699 1919.78,90.8373 
  1925.48,93.0196 1931.18,95.817 1936.89,99.2287 1942.59,103.253 1948.29,107.889 1953.99,113.134 1959.7,118.984 1965.4,125.435 1971.1,132.482 1976.81,140.122 
  1982.51,148.346 1988.21,157.15 1993.92,166.526 1999.62,176.465 2005.32,186.96 2011.03,198.002 2016.73,209.581 2022.43,221.686 2028.14,234.308 2033.84,247.433 
  2039.54,261.052 2045.24,275.151 2050.95,289.716 2056.65,304.736 2062.35,320.195 2068.06,336.079 2073.76,352.374 2079.46,369.063 2085.17,386.131 2090.87,403.563 
  2096.57,421.34 2102.28,439.447 2107.98,457.865 2113.68,476.578 2119.38,495.567 2125.09,514.813 2130.79,534.299 2136.49,554.005 2142.2,573.913 2147.9,594.003 
  2153.6,614.255 2159.31,634.651 2165.01,655.169 2170.71,675.791 2176.42,696.496 2182.12,717.265 2187.82,738.076 2193.53,758.911 2199.23,779.749 2204.93,800.569 
  2210.63,821.352 2216.34,842.077 2222.04,862.725 2227.74,883.276 2233.45,903.71 2239.15,924.007 2244.85,944.148 2250.56,964.114 2256.26,983.886 2261.96,1003.45 
  2267.67,1022.77 2273.37,1041.85 2279.07,1060.66 2284.77,1079.19 2290.48,1097.41 
  "/>
<path clip-path="url(#clip2400)" d="
M1989.74 251.724 L2280.76 251.724 L2280.76 130.764 L1989.74 130.764  Z
  " fill="#ffffff" fill-rule="evenodd" fill-opacity="1"/>
<polyline clip-path="url(#clip2400)" style="stroke:#000000; stroke-width:4; stroke-opacity:1; fill:none" points="
  1989.74,251.724 2280.76,251.724 2280.76,130.764 1989.74,130.764 1989.74,251.724 
  "/>
<polyline clip-path="url(#clip2400)" style="stroke:#009af9; stroke-width:4; stroke-opacity:1; fill:none" points="
  2013.74,191.244 2157.74,191.244 
  "/>
<path clip-path="url(#clip2400)" d="M 0 0 M2195.58 210.931 Q2193.77 215.561 2192.06 216.973 Q2190.35 218.385 2187.48 218.385 L2184.08 218.385 L2184.08 214.82 L2186.58 214.82 Q2188.33 214.82 2189.31 213.987 Q2190.28 213.154 2191.46 210.052 L2192.22 208.107 L2181.74 182.598 L2186.25 182.598 L2194.35 202.876 L2202.46 182.598 L2206.97 182.598 L2195.58 210.931 Z" fill="#000000" fill-rule="evenodd" fill-opacity="1" /><path clip-path="url(#clip2400)" d="M 0 0 M2212.85 204.589 L2220.49 204.589 L2220.49 178.223 L2212.18 179.89 L2212.18 175.631 L2220.44 173.964 L2225.12 173.964 L2225.12 204.589 L2232.76 204.589 L2232.76 208.524 L2212.85 208.524 L2212.85 204.589 Z" fill="#000000" fill-rule="evenodd" fill-opacity="1" /></svg>
